<svg width="18" height="18" viewBox="0 0 18 18" fill="none" xmlns="http://www.w3.org/2000/svg">
<path d="M10.0575 15.5923L9.00004 16.2748C8.01754 16.8823 6.65254 16.1998 6.65254 14.9848V10.9723C6.65254 10.4398 6.35254 9.75732 6.04504 9.38232L3.16504 6.35232C2.78254 5.96982 2.48254 5.29482 2.48254 4.83732V3.09732C2.48254 2.18982 3.16504 1.50732 3.99754 1.50732H14.0025C14.835 1.50732 15.5175 2.18982 15.5175 3.02232V4.68732C15.5175 5.29482 15.135 6.05232 14.76 6.42732" stroke="#C9C9C9" stroke-width="1.5" stroke-miterlimit="10" stroke-linecap="round" stroke-linejoin="round"/>
<path d="M13.6125 11.9925L11.73 10.11M13.5975 10.1325L11.715 12.015M16.2225 11.0625C16.2225 11.73 16.035 12.36 15.705 12.9C15.3911 13.4273 14.9452 13.8637 14.4112 14.1662C13.8773 14.4687 13.2737 14.6268 12.66 14.625C12.0467 14.6252 11.4437 14.4665 10.91 14.1641C10.3763 13.8618 9.93016 13.4262 9.61504 12.9C9.27537 12.3474 9.09618 11.7112 9.09754 11.0625C9.09754 9.0975 10.695 7.5 12.66 7.5C14.625 7.5 16.2225 9.0975 16.2225 11.0625V11.0625Z" stroke="#C9C9C9" stroke-width="1.5" stroke-miterlimit="10" stroke-linecap="round" stroke-linejoin="round"/>
<path d="M15.5175 3.015V4.68C15.5175 5.2875 15.135 6.045 14.76 6.4275L13.44 7.59C13.1845 7.52921 12.9227 7.49899 12.66 7.5C10.695 7.5 9.09754 9.0975 9.09754 11.0625C9.09754 11.73 9.28504 12.36 9.61504 12.9C9.89254 13.365 10.275 13.7625 10.74 14.0475V14.3025C10.74 14.76 10.44 15.3675 10.0575 15.5925L9.00004 16.275C8.01754 16.8825 6.65254 16.2 6.65254 14.985V10.9725C6.65254 10.44 6.34504 9.7575 6.04504 9.3825L3.16504 6.3525C2.79004 5.97 2.48254 5.2875 2.48254 4.8375V3.09C2.48254 2.1825 3.16504 1.5 3.99754 1.5H14.0025C14.835 1.5 15.5175 2.1825 15.5175 3.015Z" stroke="#C9C9C9" stroke-width="1.5" stroke-miterlimit="10" stroke-linecap="round" stroke-linejoin="round"/>
</svg>
