<svg width="18" height="18" viewBox="0 0 18 18" fill="none" xmlns="http://www.w3.org/2000/svg">
<path d="M10.7399 14.3023C10.7399 14.7598 10.4399 15.3598 10.0574 15.5923L8.99992 16.2748C8.01742 16.8823 6.65242 16.1998 6.65242 14.9848V10.9723C6.65242 10.4398 6.35242 9.75732 6.04492 9.38232L3.16492 6.35232C2.78242 5.96982 2.48242 5.29482 2.48242 4.83732V3.09732C2.48242 2.18982 3.16492 1.50732 3.99742 1.50732H14.0024C14.8349 1.50732 15.5174 2.18982 15.5174 3.02232V4.68732C15.5174 5.29482 15.1349 6.05232 14.7599 6.42732" stroke="#C9C9C9" stroke-width="1.5" stroke-miterlimit="10" stroke-linecap="round" stroke-linejoin="round"/>
<path d="M14.9026 12.8398L14.1526 12.0898M12.0526 12.3898C12.6891 12.3898 13.2996 12.137 13.7496 11.6869C14.1997 11.2368 14.4526 10.6264 14.4526 9.98984C14.4526 9.35332 14.1997 8.74288 13.7496 8.29279C13.2996 7.8427 12.6891 7.58984 12.0526 7.58984C11.4161 7.58984 10.8056 7.8427 10.3555 8.29279C9.90544 8.74288 9.65259 9.35332 9.65259 9.98984C9.65259 10.6264 9.90544 11.2368 10.3555 11.6869C10.8056 12.137 11.4161 12.3898 12.0526 12.3898Z" stroke="#C9C9C9" stroke-width="1.5" stroke-linecap="round" stroke-linejoin="round"/>
</svg>
