<svg width="20" height="20" viewBox="0 0 20 20" fill="none" xmlns="http://www.w3.org/2000/svg">
<g clip-path="url(#clip0_848_1230)">
<path d="M18.3337 5.20817V9.45817C18.3337 10.5165 17.9837 11.4082 17.3587 12.0248C16.742 12.6498 15.8503 12.9998 14.792 12.9998V14.5082C14.792 15.0748 14.1587 15.4165 13.692 15.0998L12.8837 14.5665C12.9587 14.3082 12.992 14.0248 12.992 13.7248V10.3332C12.992 8.63317 11.8587 7.49984 10.1587 7.49984H4.50033C4.38366 7.49984 4.27533 7.50817 4.16699 7.5165V5.20817C4.16699 3.08317 5.58366 1.6665 7.70866 1.6665H14.792C16.917 1.6665 18.3337 3.08317 18.3337 5.20817Z" stroke="#C9C9C9" stroke-width="1.5" stroke-miterlimit="10" stroke-linecap="round" stroke-linejoin="round"/>
<path d="M12.992 10.3333V13.725C12.992 14.025 12.9587 14.3083 12.8837 14.5667C12.5753 15.7917 11.5587 16.5583 10.1587 16.5583H7.89199L5.37533 18.2333C5.29096 18.2911 5.19238 18.3246 5.0903 18.3302C4.98821 18.3359 4.88654 18.3134 4.79633 18.2653C4.70612 18.2172 4.63083 18.1453 4.57864 18.0574C4.52645 17.9694 4.49936 17.8689 4.50033 17.7667V16.5583C3.65033 16.5583 2.94199 16.275 2.45033 15.7833C1.95033 15.2833 1.66699 14.575 1.66699 13.725V10.3333C1.66699 8.75 2.65033 7.65833 4.16699 7.51667C4.27533 7.50833 4.38366 7.5 4.50033 7.5H10.1587C11.8587 7.5 12.992 8.63333 12.992 10.3333V10.3333Z" stroke="#C9C9C9" stroke-width="1.5" stroke-miterlimit="10" stroke-linecap="round" stroke-linejoin="round"/>
</g>
<defs>
<clipPath id="clip0_848_1230">
<rect width="20" height="20" fill="white"/>
</clipPath>
</defs>
</svg>
