<svg width="20" height="20" viewBox="0 0 20 20" fill="none" xmlns="http://www.w3.org/2000/svg">
<path d="M17.1583 18.3332C17.1583 15.1082 13.95 12.4998 10 12.4998C6.05001 12.4998 2.84167 15.1082 2.84167 18.3332M10 9.99984C11.1051 9.99984 12.1649 9.56085 12.9463 8.77945C13.7277 7.99805 14.1667 6.93824 14.1667 5.83317C14.1667 4.7281 13.7277 3.66829 12.9463 2.88689C12.1649 2.10549 11.1051 1.6665 10 1.6665C8.89494 1.6665 7.83513 2.10549 7.05373 2.88689C6.27233 3.66829 5.83334 4.7281 5.83334 5.83317C5.83334 6.93824 6.27233 7.99805 7.05373 8.77945C7.83513 9.56085 8.89494 9.99984 10 9.99984V9.99984Z" stroke="#C9C9C9" stroke-width="1.5" stroke-linecap="round" stroke-linejoin="round"/>
</svg>
