<svg width="299" height="136" viewBox="0 0 299 136" fill="none" xmlns="http://www.w3.org/2000/svg">
<g clip-path="url(#clip0_97_219)">
<rect x="23.1216" y="48.2086" width="49.249" height="40.5784" fill="#E5F5BC"/>
<path d="M49.3323 136.41C51.3974 131.515 53.386 125.358 54.4568 118.092C54.8774 115.223 55.1069 112.547 55.1834 110.023C56.7895 111.438 59.39 113.35 62.9465 114.803C66.7707 116.333 70.136 116.715 72.3541 116.791C71.2068 115.874 67.1532 112.317 66.1589 106.237C65.4705 102.068 66.5413 98.7029 67.1532 97.1732C53.6919 97.1732 40.1925 97.1732 26.7313 97.1732C26.846 98.6264 26.846 100.73 26.1194 103.101C24.475 108.378 20.4596 111.132 19.1211 111.973C21.0332 112.432 25.1633 113.12 29.9436 111.514C32.85 110.558 34.9533 109.067 36.2535 107.996C38.4333 110.94 40.7661 114.535 42.9077 118.78C46.3112 125.358 48.2233 131.476 49.3323 136.41Z" fill="url(#paint0_linear_97_219)"/>
<path d="M5.54492 58.7017V3.05945L24.2835 21.7981L5.54492 58.7017Z" fill="#91AC58"/>
<path d="M19.1592 21.3392L8.87207 32.2764V11.0903L19.1592 21.3392Z" fill="#E4CC56"/>
<path d="M88.5687 58.7017V3.05945L69.8301 21.7981L88.5687 58.7017Z" fill="#91AC58"/>
<path d="M74.9546 21.3392L85.2417 32.2764V11.0903L74.9546 21.3392Z" fill="#E4CC56"/>
<path d="M88.5688 58.7016C88.5688 67.9562 86.7332 75.7576 83.1002 82.1058C79.4672 88.4539 74.4957 93.3107 68.3005 96.5995C62.0671 99.8883 54.954 101.533 46.9614 101.533C39.0453 101.533 31.9705 99.8883 25.7371 96.5995C19.5036 93.3107 14.6086 88.4922 10.9756 82.1058C7.38087 75.7576 5.5835 67.9562 5.5835 58.7016C5.5835 49.447 7.41912 41.6456 11.1286 35.2974C12.6965 32.5823 14.4939 30.173 16.5207 28.0315C19.2742 25.1251 22.41 22.754 26.0048 20.8802C32.2382 17.6296 39.1983 16.0234 46.9614 16.0234C54.8011 16.0234 61.8376 17.6296 68.1093 20.8802C74.381 24.1308 79.3525 28.9493 83.062 35.2974C86.695 41.6456 88.5688 49.447 88.5688 58.7016ZM67.3445 58.7016C67.3445 50.2501 65.5088 43.7872 61.7994 39.3511C58.0899 34.915 53.1566 32.697 46.9232 32.697C40.9574 32.697 36.1007 34.915 32.3912 39.3129C28.6435 43.6725 26.7696 50.1354 26.7696 58.7016C26.7696 67.3443 28.6052 73.8455 32.3147 78.1668C35.986 82.5264 40.9192 84.7062 47.0762 84.7062C53.2331 84.7062 58.1281 82.5264 61.8376 78.1668C65.5088 73.8072 67.3445 67.3061 67.3445 58.7016Z" fill="#CDDFA0"/>
<path d="M57.0955 91.7046C56.6366 91.7046 55.8717 91.6281 55.0304 91.1692C53.6537 90.4426 53.1183 89.1806 52.9653 88.7982C52.9653 91.0927 54.8774 93.0048 57.172 93.0048C59.4665 93.0048 61.3786 91.0927 61.3786 88.7982C61.1874 89.2189 60.6137 90.4426 59.237 91.1692C58.3192 91.6281 57.5544 91.7046 57.0955 91.7046Z" fill="#0C0B0B"/>
<path d="M47.0374 91.7046C46.5785 91.7046 45.8136 91.6281 44.9723 91.1692C43.5956 90.4426 43.0602 89.1806 42.9072 88.7982C42.9072 91.0927 44.8193 93.0048 47.1139 93.0048C49.4084 93.0048 51.3205 91.0927 51.3205 88.7982C51.1293 89.2189 50.5556 90.4426 49.1789 91.1692C48.2611 91.6281 47.458 91.7046 47.0374 91.7046Z" fill="#0C0B0B"/>
<path d="M36.9417 91.7046C36.4828 91.7046 35.7179 91.6281 34.8766 91.1692C33.4999 90.4426 32.9645 89.1806 32.8115 88.7982C32.8115 91.0927 34.7236 93.0048 37.0182 93.0048C39.3127 93.0048 41.2248 91.0927 41.2248 88.7982C41.0336 89.2189 40.4599 90.4426 39.0832 91.1692C38.2037 91.6281 37.4006 91.7046 36.9417 91.7046Z" fill="#0C0B0B"/>
<path d="M52.1238 98.1675C51.6649 98.1675 50.9 98.091 50.0587 97.6321C48.682 96.9055 48.1466 95.6435 47.9937 95.2611C47.9937 97.5556 49.9058 99.4677 52.2003 99.4677C54.4948 99.4677 56.4069 97.5556 56.4069 95.2611C56.2157 95.6818 55.6421 96.9055 54.2654 97.6321C53.3858 98.091 52.5827 98.1675 52.1238 98.1675Z" fill="#0C0B0B"/>
<path d="M42.0662 98.1675C41.6073 98.1675 40.8424 98.091 40.0011 97.6321C38.6244 96.9055 38.089 95.6435 37.936 95.2611C37.936 97.5556 39.8481 99.4677 42.1427 99.4677C44.4372 99.4677 46.3493 97.5556 46.3493 95.2611C46.1581 95.6818 45.5845 96.9055 44.2077 97.6321C43.2899 98.091 42.5251 98.1675 42.0662 98.1675Z" fill="#0C0B0B"/>
<path d="M47.0374 104.63C46.5785 104.63 45.8136 104.554 44.9723 104.095C43.5956 103.368 43.0602 102.106 42.9072 101.724C42.9072 104.019 44.8193 105.931 47.1139 105.931C49.4084 105.931 51.3205 104.019 51.3205 101.724C51.1293 102.145 50.5556 103.368 49.1789 104.095C48.2611 104.554 47.458 104.63 47.0374 104.63Z" fill="#0C0B0B"/>
<path d="M46.8082 25.2398C43.2516 25.2016 36.827 24.5132 29.9816 20.3831C18.8532 13.6525 14.4171 2.33281 13.1934 -1.14722C13.1934 19.6947 28.4902 36.8654 47.0376 36.8654C65.585 36.8654 80.9201 19.6947 80.9201 -1.14722C79.5434 2.52402 74.8014 13.6907 63.5582 20.3831C56.7893 24.3985 50.4412 25.1251 46.8082 25.2398Z" fill="#91AC58"/>
<path d="M4.5891 48.0703C7.38077 46.7318 11.5874 47.3819 14.0731 49.8677C19.0828 54.9156 13.3848 63.979 13.9584 78.8169C14.3026 87.2302 16.4824 93.9608 18.1268 98.0909C14.6468 94.1138 10.4401 88.6069 6.80714 81.4174C3.78602 75.5281 1.91215 70.0595 0.72665 65.5852C-1.87381 57.2866 0.305987 50.0971 4.5891 48.0703Z" fill="#91AC58"/>
<path d="M90.9396 48.0703C88.1479 46.7318 83.9413 47.3819 81.4555 49.8677C76.4458 54.9156 82.1439 63.979 81.5702 78.8169C81.2261 87.2302 79.0463 93.9608 77.4019 98.0909C80.8819 94.1138 85.0885 88.6069 88.7215 81.4174C91.7044 75.5281 93.5783 70.0595 94.7638 65.5852C97.4025 57.2866 95.2227 50.0971 90.9396 48.0703Z" fill="#91AC58"/>
<path d="M42.7549 34.8003C43.2903 35.221 45.0494 36.5977 47.6881 36.6359C50.518 36.6742 52.4301 35.221 52.9273 34.8003C52.9273 43.7107 52.9273 52.5829 52.9273 61.4933C52.4301 61.0726 50.518 59.6576 47.7646 59.6959C45.0876 59.7341 43.2903 61.0726 42.7549 61.4933C42.7549 52.6211 42.7549 43.7107 42.7549 34.8003Z" fill="#91AC58"/>
<path d="M32.8501 64.7821C42.0376 64.7821 49.4855 57.3342 49.4855 48.1468C49.4855 38.9594 42.0376 31.5115 32.8501 31.5115C23.6627 31.5115 16.2148 38.9594 16.2148 48.1468C16.2148 57.3342 23.6627 64.7821 32.8501 64.7821Z" fill="#91AC58"/>
<path d="M32.8504 61.4933C40.2215 61.4933 46.1969 55.5178 46.1969 48.1468C46.1969 40.7757 40.2215 34.8003 32.8504 34.8003C25.4793 34.8003 19.5039 40.7757 19.5039 48.1468C19.5039 55.5178 25.4793 61.4933 32.8504 61.4933Z" fill="black"/>
<path d="M32.8501 59.2752C38.9962 59.2752 43.9786 54.2928 43.9786 48.1468C43.9786 42.0007 38.9962 37.0183 32.8501 37.0183C26.7041 37.0183 21.7217 42.0007 21.7217 48.1468C21.7217 54.2928 26.7041 59.2752 32.8501 59.2752Z" fill="white"/>
<path d="M32.8503 56.56C37.4968 56.56 41.2635 52.7933 41.2635 48.1468C41.2635 43.5003 37.4968 39.7335 32.8503 39.7335C28.2038 39.7335 24.437 43.5003 24.437 48.1468C24.437 52.7933 28.2038 56.56 32.8503 56.56Z" fill="black"/>
<path d="M32.8499 54.8009C36.5249 54.8009 39.504 51.8218 39.504 48.1468C39.504 44.4718 36.5249 41.4927 32.8499 41.4927C29.175 41.4927 26.1958 44.4718 26.1958 48.1468C26.1958 51.8218 29.175 54.8009 32.8499 54.8009Z" fill="#1A1A1A"/>
<path d="M33.9209 54.2272C37.6803 54.2272 40.7279 51.1796 40.7279 47.4201C40.7279 43.6607 37.6803 40.613 33.9209 40.613C30.1614 40.613 27.1138 43.6607 27.1138 47.4201C27.1138 51.1796 30.1614 54.2272 33.9209 54.2272Z" fill="black"/>
<path d="M37.8982 49.5617C40.3693 49.5617 42.3725 47.5585 42.3725 45.0874C42.3725 42.6163 40.3693 40.613 37.8982 40.613C35.4271 40.613 33.4238 42.6163 33.4238 45.0874C33.4238 47.5585 35.4271 49.5617 37.8982 49.5617Z" fill="white"/>
<path d="M62.9083 64.7821C72.0957 64.7821 79.5436 57.3342 79.5436 48.1468C79.5436 38.9594 72.0957 31.5115 62.9083 31.5115C53.7208 31.5115 46.2729 38.9594 46.2729 48.1468C46.2729 57.3342 53.7208 64.7821 62.9083 64.7821Z" fill="#91AC58"/>
<path d="M62.9085 61.4933C70.2796 61.4933 76.255 55.5178 76.255 48.1468C76.255 40.7757 70.2796 34.8003 62.9085 34.8003C55.5374 34.8003 49.562 40.7757 49.562 48.1468C49.562 55.5178 55.5374 61.4933 62.9085 61.4933Z" fill="black"/>
<path d="M62.9082 59.2752C69.0543 59.2752 74.0367 54.2928 74.0367 48.1468C74.0367 42.0007 69.0543 37.0183 62.9082 37.0183C56.7622 37.0183 51.7798 42.0007 51.7798 48.1468C51.7798 54.2928 56.7622 59.2752 62.9082 59.2752Z" fill="white"/>
<path d="M62.908 54.8009C66.583 54.8009 69.5621 51.8218 69.5621 48.1468C69.5621 44.4718 66.583 41.4927 62.908 41.4927C59.2331 41.4927 56.2539 44.4718 56.2539 48.1468C56.2539 51.8218 59.2331 54.8009 62.908 54.8009Z" fill="#1A1A1A"/>
<path d="M62.9084 56.56C67.5549 56.56 71.3216 52.7933 71.3216 48.1468C71.3216 43.5003 67.5549 39.7335 62.9084 39.7335C58.2619 39.7335 54.4951 43.5003 54.4951 48.1468C54.4951 52.7933 58.2619 56.56 62.9084 56.56Z" fill="black"/>
<path d="M63.979 54.2272C67.7384 54.2272 70.7861 51.1796 70.7861 47.4201C70.7861 43.6607 67.7384 40.613 63.979 40.613C60.2195 40.613 57.1719 43.6607 57.1719 47.4201C57.1719 51.1796 60.2195 54.2272 63.979 54.2272Z" fill="black"/>
<path d="M67.9182 49.5617C70.3893 49.5617 72.3925 47.5585 72.3925 45.0874C72.3925 42.6163 70.3893 40.613 67.9182 40.613C65.4471 40.613 63.4438 42.6163 63.4438 45.0874C63.4438 47.5585 65.4471 49.5617 67.9182 49.5617Z" fill="white"/>
<path d="M43.4048 59.7341H52.3152L47.8791 67.4208L43.4048 59.7341Z" fill="#625834"/>
<path d="M47.8791 57.5161L43.4048 59.7342H52.3152L47.8791 57.5161Z" fill="#1A1A1A"/>
<path d="M43.4048 59.7342L47.8791 57.5161L52.3152 59.7342L47.8791 64.7821L43.4048 59.7342Z" fill="#E4CC56"/>
<path d="M144.273 60.958C143.288 65.2262 142.084 69.7132 140.77 74.3097C139.347 78.9061 138.033 83.2837 136.829 87.2235C135.625 91.1634 134.64 94.4466 133.764 96.8542C132.67 97.7298 131.247 98.4958 129.386 99.043C127.525 99.5902 125.226 99.9186 122.599 99.9186C119.644 99.9186 116.907 99.4808 114.608 98.6053C112.309 97.7298 110.668 96.4165 109.901 94.7749C109.135 93.0238 108.259 90.5067 107.165 87.333C106.18 84.0498 105.085 80.3288 104.1 76.1701C103.005 72.0114 102.02 67.6338 101.035 63.1468C100.05 58.6598 99.0644 54.2822 98.2982 50.014C97.4224 45.7459 96.7657 41.9155 96.1089 38.5229C97.2035 37.4285 98.736 36.4435 100.487 35.568C102.239 34.6925 104.319 34.3641 106.617 34.3641C109.354 34.3641 111.543 35.0208 113.295 36.2246C115.046 37.5379 116.141 39.6173 116.469 42.6816C117.345 48.7008 118.111 53.9539 118.877 58.3314C119.534 62.709 120.191 66.5394 120.738 69.6037C121.286 72.6681 121.723 75.1852 122.161 77.1551C122.599 79.125 122.927 80.6572 123.146 81.6421H123.694C124.132 79.6722 124.898 76.6079 125.992 72.4492C127.087 68.2905 128.401 63.5846 129.824 58.222C131.247 52.8595 132.779 47.3875 134.202 41.9155C135.735 41.1494 137.267 40.4928 138.8 40.055C140.332 39.6172 142.303 39.2889 144.492 39.2889C147.228 39.2889 149.527 39.7267 151.497 40.6022C153.468 41.4777 154.672 42.791 155.219 44.6515C156.752 49.9046 158.284 55.0483 159.598 59.973C160.911 65.0073 162.115 69.3849 163.101 73.1058C164.086 76.8268 164.852 79.6722 165.29 81.6421H165.947C167.041 74.7474 168.245 67.4149 169.449 59.7542C170.654 52.0934 171.748 44.4326 172.733 36.6624C175.47 35.0208 178.425 34.1453 181.819 34.1453C184.555 34.1453 186.745 34.6925 188.496 35.8963C190.248 37.1001 191.123 39.0701 191.123 42.0249C191.123 43.3382 190.904 45.4176 190.466 48.1536C190.029 50.8895 189.372 54.0633 188.606 57.5654C187.839 61.0674 186.964 64.7884 185.978 68.7282C184.993 72.6681 184.008 76.389 183.023 80.11C182.038 83.8309 181.053 87.1141 180.177 89.9595C179.301 92.805 178.535 95.1032 177.988 96.7448C176.893 97.6203 175.251 98.3864 173.062 98.9336C170.873 99.4808 168.464 99.8091 165.947 99.8091C159.379 99.8091 155.548 98.1675 154.344 94.9938C153.577 92.6955 152.592 89.7407 151.279 85.9103C150.074 82.1893 148.87 78.0306 147.557 73.653C146.243 69.4943 145.149 65.2262 144.273 60.958Z" fill="#CDDFA0"/>
<path d="M222.759 74.7474L203.055 74.3096V13.3517C203.821 13.1328 205.026 12.8045 206.667 12.5856C208.309 12.3667 210.061 12.1478 211.812 12.1478C215.643 12.1478 218.49 12.8045 220.132 14.1177C221.883 15.431 222.649 17.8387 222.649 21.4502V74.7474H222.759ZM203.055 64.1317L222.759 64.5695V98.7147C221.992 98.9335 220.788 99.2619 219.146 99.4807C217.504 99.6996 215.753 99.8091 214.002 99.8091C210.28 99.8091 207.434 99.1524 205.682 97.8391C203.931 96.5259 203.055 94.1182 203.055 90.6161V64.1317Z" fill="#CDDFA0"/>
<path d="M249.03 83.1742C247.607 80.2193 246.074 76.7173 244.542 72.5586C242.9 68.5093 241.258 63.6939 239.506 58.0031C237.755 52.4216 235.894 45.9647 234.033 38.5228C235.128 37.319 236.66 36.2246 238.412 35.4585C240.163 34.583 242.243 34.2546 244.432 34.2546C247.169 34.2546 249.358 34.8018 251.219 36.0057C252.97 37.2095 254.393 39.3983 255.269 42.4626C257.239 48.8101 259.319 55.1576 261.29 61.3957C263.26 67.6338 265.34 73.9813 267.42 80.3288H267.967C269.499 76.3889 270.922 71.9019 272.455 66.9771C273.987 61.9429 275.301 56.9087 276.615 51.6556C277.928 46.4025 279.023 41.3682 279.898 36.4434C281.212 35.7868 282.526 35.2396 283.949 34.8018C285.372 34.3641 286.795 34.2546 288.437 34.2546C291.173 34.2546 293.472 34.9113 295.552 36.1151C297.522 37.319 298.617 39.3983 298.617 42.1343C298.617 44.6514 298.288 47.7157 297.522 51.3272C296.756 54.9388 295.771 58.7691 294.457 62.9279C293.144 67.0866 291.721 71.3547 290.079 75.6229C288.437 79.891 286.795 84.0497 284.934 88.099C283.182 92.1483 281.321 95.7598 279.461 98.8241C274.754 107.142 270.375 113.38 266.325 117.429C262.275 121.478 258.334 123.557 254.393 123.557C251.219 123.557 248.592 122.573 246.512 120.712C244.432 118.742 243.119 116.334 242.681 113.27C244.651 111.738 246.512 109.878 248.482 107.798C250.453 105.719 252.423 103.53 254.284 101.341C256.145 99.043 257.787 96.7447 259.21 94.5559C257.677 94.1182 256.145 93.1332 254.503 91.7105C252.751 90.0689 251 87.3329 249.03 83.1742Z" fill="#CDDFA0"/>
</g>
<defs>
<linearGradient id="paint0_linear_97_219" x1="45.7376" y1="97.1732" x2="45.7376" y2="136.41" gradientUnits="userSpaceOnUse">
<stop offset="0.223958" stop-color="#CDDFA0"/>
<stop offset="1" stop-color="#93AE5B"/>
</linearGradient>
<clipPath id="clip0_97_219">
<rect width="298.288" height="135.377" fill="white"/>
</clipPath>
</defs>
</svg>