<svg width="105" height="150" viewBox="0 0 105 150" fill="none" xmlns="http://www.w3.org/2000/svg">
<g clip-path="url(#clip0_267_1086)">
<rect x="27" y="55" width="51" height="40" fill="#E5F5BC"/>
<path d="M54.2099 150C56.4617 144.662 58.6301 137.948 59.7977 130.025C60.2564 126.897 60.5066 123.978 60.59 121.226C62.3414 122.769 65.1769 124.854 69.055 126.439C73.225 128.107 76.8946 128.524 79.3132 128.607C78.0622 127.606 73.642 123.728 72.5578 117.098C71.8072 112.552 72.9748 108.882 73.642 107.214C58.9637 107.214 44.2437 107.214 29.5653 107.214C29.6904 108.799 29.6904 111.093 28.8981 113.678C27.1051 119.433 22.7266 122.435 21.2671 123.353C23.3521 123.853 27.8557 124.604 33.0681 122.852C36.2373 121.81 38.5308 120.183 39.9486 119.016C42.3255 122.227 44.8692 126.147 47.2043 130.776C50.9156 137.948 53.0006 144.621 54.2099 150Z" fill="url(#paint0_linear_267_1086)"/>
<path d="M6.46338 65.2625V4.58691L26.8963 25.0206L6.46338 65.2625Z" fill="#91AC58"/>
<path d="M21.3085 24.5202L10.0913 36.4468V13.3442L21.3085 24.5202Z" fill="#F2CA6B"/>
<path d="M96.9934 65.2625V4.58691L76.5605 25.0206L96.9934 65.2625Z" fill="#91AC58"/>
<path d="M82.1484 24.5202L93.3657 36.4468V13.3442L82.1484 24.5202Z" fill="#F2CA6B"/>
<path d="M96.9939 65.2624C96.9939 75.3542 94.9923 83.8612 91.0308 90.7837C87.0693 97.7061 81.6483 103.002 74.893 106.589C68.0959 110.175 60.3398 111.968 51.6245 111.968C42.9927 111.968 35.2782 110.175 28.4811 106.589C21.6841 103.002 16.3465 97.7478 12.385 90.7837C8.46526 83.8612 6.50537 75.3542 6.50537 65.2624C6.50537 55.1707 8.50696 46.6636 12.5518 39.7411C14.2615 36.7803 16.2214 34.1532 18.4315 31.8179C21.4339 28.6486 24.8533 26.0631 28.773 24.0197C35.5701 20.4751 43.1595 18.7236 51.6245 18.7236C60.173 18.7236 67.8457 20.4751 74.6845 24.0197C81.5232 27.5643 86.9442 32.8187 90.9891 39.7411C94.9506 46.6636 96.9939 55.1707 96.9939 65.2624ZM73.8505 65.2624C73.8505 56.0464 71.8489 48.9989 67.804 44.1615C63.7591 39.3241 58.3799 36.9055 51.5828 36.9055C45.0776 36.9055 39.7818 39.3241 35.7369 44.1198C31.6503 48.8738 29.607 55.9213 29.607 65.2624C29.607 74.6869 31.6086 81.7762 35.6535 86.4884C39.6567 91.2424 45.0359 93.6194 51.7496 93.6194C58.4633 93.6194 63.8008 91.2424 67.8457 86.4884C71.8489 81.7345 73.8505 74.6452 73.8505 65.2624Z" fill="#CDDFA0"/>
<path d="M62.6745 101.251C62.1741 101.251 61.3401 101.168 60.4227 100.668C58.9215 99.8752 58.3377 98.499 58.1709 98.082C58.1709 100.584 60.2559 102.669 62.7579 102.669C65.2599 102.669 67.3448 100.584 67.3448 98.082C67.1363 98.5407 66.5108 99.8752 65.0097 100.668C64.0089 101.168 63.1749 101.251 62.6745 101.251Z" fill="#0C0B0B"/>
<path d="M51.7077 101.251C51.2073 101.251 50.3733 101.168 49.4559 100.668C47.9547 99.8752 47.3709 98.499 47.2041 98.082C47.2041 100.584 49.2891 102.669 51.7911 102.669C54.2931 102.669 56.378 100.584 56.378 98.082C56.1695 98.5407 55.5441 99.8752 54.0429 100.668C53.0421 101.168 52.1664 101.251 51.7077 101.251Z" fill="#0C0B0B"/>
<path d="M40.6989 101.251C40.1985 101.251 39.3645 101.168 38.4471 100.668C36.9459 99.8752 36.3621 98.499 36.1953 98.082C36.1953 100.584 38.2803 102.669 40.7823 102.669C43.2843 102.669 45.3693 100.584 45.3693 98.082C45.1608 98.5407 44.5353 99.8752 43.0341 100.668C42.075 101.168 41.1993 101.251 40.6989 101.251Z" fill="#0C0B0B"/>
<path d="M57.2536 108.299C56.7532 108.299 55.9192 108.215 55.0018 107.715C53.5006 106.923 52.9168 105.546 52.75 105.129C52.75 107.631 54.835 109.717 57.337 109.717C59.839 109.717 61.9239 107.631 61.9239 105.129C61.7154 105.588 61.0899 106.923 59.5888 107.715C58.6297 108.215 57.754 108.299 57.2536 108.299Z" fill="#0C0B0B"/>
<path d="M46.2868 108.299C45.7864 108.299 44.9524 108.215 44.035 107.715C42.5338 106.923 41.95 105.546 41.7832 105.129C41.7832 107.631 43.8682 109.717 46.3702 109.717C48.8722 109.717 50.9572 107.631 50.9572 105.129C50.7487 105.588 50.1232 106.923 48.622 107.715C47.6212 108.215 46.7872 108.299 46.2868 108.299Z" fill="#0C0B0B"/>
<path d="M51.7077 115.347C51.2073 115.347 50.3733 115.263 49.4559 114.763C47.9547 113.97 47.3709 112.594 47.2041 112.177C47.2041 114.679 49.2891 116.764 51.7911 116.764C54.2931 116.764 56.378 114.679 56.378 112.177C56.1695 112.636 55.5441 113.97 54.0429 114.763C53.0421 115.263 52.1664 115.347 51.7077 115.347Z" fill="#0C0B0B"/>
<path d="M51.4573 28.774C47.5792 28.7323 40.5737 27.9817 33.1094 23.4779C20.9748 16.1384 16.1376 3.79483 14.8032 0C14.8032 22.7273 31.4831 41.4512 51.7075 41.4512C71.9319 41.4512 88.6535 22.7273 88.6535 0C87.1523 4.00334 81.9815 16.1801 69.7218 23.4779C62.341 27.8565 55.4188 28.6489 51.4573 28.774Z" fill="#91AC58"/>
<path d="M5.42113 53.6695C8.46522 52.21 13.0522 52.9189 15.7627 55.6295C21.2253 61.1341 15.0121 71.0173 15.6376 87.1975C16.0129 96.3718 18.3898 103.711 20.1828 108.215C16.3882 103.878 11.8012 97.873 7.83972 90.0332C4.54544 83.6112 2.50215 77.6479 1.20946 72.7688C-1.62613 63.7196 0.750761 55.8797 5.42113 53.6695Z" fill="#91AC58"/>
<path d="M99.5791 53.6695C96.535 52.21 91.948 52.9189 89.2376 55.6295C83.7749 61.1341 89.9882 71.0173 89.3627 87.1975C88.9874 96.3718 86.6105 103.711 84.8174 108.215C88.6121 103.878 93.199 97.873 97.1605 90.0332C100.413 83.6112 102.456 77.6479 103.749 72.7688C106.626 63.7196 104.249 55.8797 99.5791 53.6695Z" fill="#91AC58"/>
<path d="M47.0371 39.1992C47.6209 39.6579 49.5391 41.1592 52.4164 41.2009C55.5022 41.2426 57.5871 39.6579 58.1292 39.1992C58.1292 48.9156 58.1292 58.5904 58.1292 68.3068C57.5871 67.8481 55.5022 66.3051 52.4998 66.3468C49.5808 66.3885 47.6209 67.8481 47.0371 68.3068C47.0371 58.6321 47.0371 48.9156 47.0371 39.1992Z" fill="#91AC58"/>
<path d="M36.2371 71.8935C46.2552 71.8935 54.3764 63.7719 54.3764 53.7534C54.3764 43.7349 46.2552 35.6133 36.2371 35.6133C26.2189 35.6133 18.0977 43.7349 18.0977 53.7534C18.0977 63.7719 26.2189 71.8935 36.2371 71.8935Z" fill="#91AC58"/>
<path d="M36.2368 68.3073C44.2743 68.3073 50.79 61.7913 50.79 53.7535C50.79 45.7157 44.2743 39.1997 36.2368 39.1997C28.1993 39.1997 21.6836 45.7157 21.6836 53.7535C21.6836 61.7913 28.1993 68.3073 36.2368 68.3073Z" fill="black"/>
<path d="M36.2372 65.8884C42.9389 65.8884 48.3718 60.4553 48.3718 53.7533C48.3718 47.0512 42.9389 41.6182 36.2372 41.6182C29.5354 41.6182 24.1025 47.0512 24.1025 53.7533C24.1025 60.4553 29.5354 65.8884 36.2372 65.8884Z" fill="white"/>
<path d="M36.2369 62.9277C41.3036 62.9277 45.4109 58.8202 45.4109 53.7534C45.4109 48.6866 41.3036 44.5791 36.2369 44.5791C31.1703 44.5791 27.063 48.6866 27.063 53.7534C27.063 58.8202 31.1703 62.9277 36.2369 62.9277Z" fill="black"/>
<path d="M36.2372 61.0097C40.2444 61.0097 43.493 57.761 43.493 53.7536C43.493 49.7462 40.2444 46.4976 36.2372 46.4976C32.23 46.4976 28.9814 49.7462 28.9814 53.7536C28.9814 57.761 32.23 61.0097 36.2372 61.0097Z" fill="#1A1A1A"/>
<path d="M37.4045 60.3838C41.5039 60.3838 44.827 57.0605 44.827 52.9609C44.827 48.8614 41.5039 45.5381 37.4045 45.5381C33.3051 45.5381 29.9819 48.8614 29.9819 52.9609C29.9819 57.0605 33.3051 60.3838 37.4045 60.3838Z" fill="black"/>
<path d="M41.7412 55.2962C44.4357 55.2962 46.62 53.1118 46.62 50.4172C46.62 47.7225 44.4357 45.5381 41.7412 45.5381C39.0466 45.5381 36.8623 47.7225 36.8623 50.4172C36.8623 53.1118 39.0466 55.2962 41.7412 55.2962Z" fill="white"/>
<path d="M69.0129 71.8935C79.031 71.8935 87.1523 63.7719 87.1523 53.7534C87.1523 43.7349 79.031 35.6133 69.0129 35.6133C58.9948 35.6133 50.8735 43.7349 50.8735 53.7534C50.8735 63.7719 58.9948 71.8935 69.0129 71.8935Z" fill="#91AC58"/>
<path d="M69.0127 68.3073C77.0502 68.3073 83.5659 61.7913 83.5659 53.7535C83.5659 45.7157 77.0502 39.1997 69.0127 39.1997C60.9752 39.1997 54.4595 45.7157 54.4595 53.7535C54.4595 61.7913 60.9752 68.3073 69.0127 68.3073Z" fill="black"/>
<path d="M69.0131 65.8884C75.7148 65.8884 81.1477 60.4553 81.1477 53.7533C81.1477 47.0512 75.7148 41.6182 69.0131 41.6182C62.3113 41.6182 56.8784 47.0512 56.8784 53.7533C56.8784 60.4553 62.3113 65.8884 69.0131 65.8884Z" fill="white"/>
<path d="M69.0128 62.9277C74.0794 62.9277 78.1868 58.8202 78.1868 53.7534C78.1868 48.6866 74.0794 44.5791 69.0128 44.5791C63.9462 44.5791 59.8389 48.6866 59.8389 53.7534C59.8389 58.8202 63.9462 62.9277 69.0128 62.9277Z" fill="black"/>
<path d="M69.0131 61.0097C73.0203 61.0097 76.2688 57.761 76.2688 53.7536C76.2688 49.7462 73.0203 46.4976 69.0131 46.4976C65.0058 46.4976 61.7573 49.7462 61.7573 53.7536C61.7573 57.761 65.0058 61.0097 69.0131 61.0097Z" fill="#1A1A1A"/>
<path d="M70.1804 60.3838C74.2797 60.3838 77.6029 57.0605 77.6029 52.9609C77.6029 48.8614 74.2797 45.5381 70.1804 45.5381C66.081 45.5381 62.7578 48.8614 62.7578 52.9609C62.7578 57.0605 66.081 60.3838 70.1804 60.3838Z" fill="black"/>
<path d="M74.4756 55.2962C77.1701 55.2962 79.3544 53.1118 79.3544 50.4172C79.3544 47.7225 77.1701 45.5381 74.4756 45.5381C71.781 45.5381 69.5967 47.7225 69.5967 50.4172C69.5967 53.1118 71.781 55.2962 74.4756 55.2962Z" fill="white"/>
<path d="M47.7461 66.3887H57.4621L52.625 74.7707L47.7461 66.3887Z" fill="#835934"/>
<path d="M52.625 63.9697L47.7461 66.3884H57.4621L52.625 63.9697Z" fill="#1A1A1A"/>
<path d="M47.7461 66.3884L52.625 63.9697L57.4621 66.3884L52.625 71.893L47.7461 66.3884Z" fill="#F2CA6B"/>
</g>
<defs>
<linearGradient id="paint0_linear_267_1086" x1="50.2901" y1="107.214" x2="50.2901" y2="150" gradientUnits="userSpaceOnUse">
<stop offset="0.255208" stop-color="#CDDFA0"/>
<stop offset="1" stop-color="#91AC58"/>
</linearGradient>
<clipPath id="clip0_267_1086">
<rect width="105" height="150" fill="white"/>
</clipPath>
</defs>
</svg>
